<svg width="26" height="26" viewBox="0 0 26 26" fill="none" xmlns="http://www.w3.org/2000/svg">
<path d="M25.6723 24.1469L18.2125 16.6756C19.6832 14.9105 20.5677 12.6547 20.5677 10.191C20.5677 4.5702 15.9586 0 10.2892 0C4.61974 0 0 4.57553 0 10.1963C0 15.817 4.60908 20.3872 10.2785 20.3872C12.687 20.3872 14.9036 19.5607 16.662 18.1795L24.1484 25.672C24.5853 26.1093 25.2354 26.1093 25.6723 25.672C26.1092 25.2347 26.1092 24.5841 25.6723 24.1469ZM2.18465 10.1963C2.18465 5.78074 5.81863 2.19178 10.2785 2.19178C14.7384 2.19178 18.3724 5.78074 18.3724 10.1963C18.3724 14.6118 14.7384 18.2008 10.2785 18.2008C5.81863 18.2008 2.18465 14.6065 2.18465 10.1963Z" fill="#FA3559"/>
</svg>
