<svg width="34" height="34" viewBox="0 0 34 34" fill="none" xmlns="http://www.w3.org/2000/svg">
<g clip-path="url(#clip0_1517_5898)">
<path fill-rule="evenodd" clip-rule="evenodd" d="M14.1304 20.8201V11.537C17.4259 13.0877 19.9783 14.5857 22.997 16.2007C20.5072 17.5815 17.4259 19.1308 14.1304 20.8201ZM32.4963 6.92004C31.9279 6.17108 30.959 5.58808 29.9275 5.39507C26.8956 4.81932 7.98098 4.81769 4.95075 5.39507C4.12358 5.55014 3.38701 5.92495 2.75427 6.5073C0.0881911 8.98182 0.923612 22.2519 1.56624 24.4015C1.83647 25.3319 2.18581 26.0029 2.62576 26.4434C3.19259 27.0257 3.96867 27.4267 4.86011 27.6065C7.35647 28.1229 20.2172 28.4116 29.8747 27.684C30.7645 27.529 31.5522 27.1151 32.1734 26.508C34.6384 24.0434 34.4704 10.028 32.4963 6.92004Z" fill="white"/>
</g>
<defs>
<clipPath id="clip0_1517_5898">
<rect width="33.0841" height="33.0841" fill="white" transform="translate(0.915894)"/>
</clipPath>
</defs>
</svg>
