<svg width="30" height="30" viewBox="0 0 30 30" fill="none" xmlns="http://www.w3.org/2000/svg">
<path d="M7.16815 8.14497C7.16815 12.6431 10.815 16.2899 15.3131 16.2899C19.8112 16.2899 23.4581 12.6431 23.4581 8.14497C23.4581 3.64688 19.8103 0 15.3122 0C10.8141 0 7.16815 3.64688 7.16815 8.14497ZM21.5822 8.14497C21.5822 11.6025 18.7697 14.4149 15.3122 14.4149C11.8547 14.4149 9.04223 11.6025 9.04223 8.14497C9.04223 4.68751 11.8557 1.87499 15.3122 1.87499C18.7687 1.87499 21.5822 4.68751 21.5822 8.14497Z" fill="white"/>
<path d="M15 29.9998H29.9999C29.9999 29.9998 30.104 21.5623 21.7706 19.062L15 24.1667L8.2294 19.063C-0.104019 21.5623 6.18165e-05 29.9998 6.18165e-05 29.9998H15ZM7.89566 21.1592L13.8713 25.6639L15 26.5142L16.1287 25.6629L22.1043 21.1582C26.1018 22.7267 27.4462 26.0332 27.8971 28.1238H15H2.10942C2.56787 26.0351 3.91786 22.7239 7.89566 21.1592Z" fill="white"/>
</svg>
