<svg width="35" height="34" viewBox="0 0 35 34" fill="none" xmlns="http://www.w3.org/2000/svg">
<g clip-path="url(#clip0_1517_5895)">
<path d="M30.6294 9.80799C30.6425 10.0988 30.6491 10.391 30.6491 10.6845C30.6491 19.6368 23.8344 29.9589 11.3754 29.9589C7.54944 29.9589 3.98818 28.8374 0.99032 26.9152C1.52096 26.9781 2.05948 27.0102 2.60653 27.0102C5.7806 27.0102 8.70111 25.9273 11.0203 24.1099C8.0552 24.0555 5.55392 22.0968 4.6918 19.4055C5.10587 19.4848 5.52976 19.5274 5.9667 19.5274C6.5838 19.5274 7.18254 19.4442 7.75124 19.2896C4.65251 18.6671 2.31692 15.9294 2.31692 12.6472C2.31692 12.6184 2.31692 12.5902 2.31763 12.562C3.23086 13.0691 4.27515 13.3738 5.38618 13.4091C3.56823 12.1946 2.37262 10.1211 2.37262 7.77047C2.37262 6.52904 2.70604 5.36554 3.28973 4.36514C6.6309 8.46356 11.6216 11.16 17.2517 11.4431C17.1365 10.9471 17.0761 10.4303 17.0761 9.89897C17.0761 6.15821 20.1093 3.125 23.8501 3.125C25.7998 3.125 27.5594 3.94784 28.7949 5.26397C30.3384 4.96065 31.7876 4.39661 33.0964 3.62023C32.5907 5.20238 31.5176 6.52963 30.1183 7.36817C31.4888 7.20436 32.7951 6.84018 34.0097 6.30166C33.1017 7.65978 31.9527 8.85275 30.6294 9.80799Z" fill="white"/>
</g>
<defs>
<clipPath id="clip0_1517_5895">
<rect width="33.0841" height="33.0841" fill="white" transform="translate(0.957947)"/>
</clipPath>
</defs>
</svg>
