<svg width="20" height="20" viewBox="0 0 20 20" fill="none" xmlns="http://www.w3.org/2000/svg">
<g clip-path="url(#clip0_1129_11641)">
<path d="M7.3125 13.1211C6.73177 13.1211 6.23177 12.9896 5.8125 12.7266C5.39583 12.4609 5.07552 12.0951 4.85156 11.6289C4.6276 11.1628 4.51562 10.6289 4.51562 10.0273C4.51562 9.41797 4.63021 8.8802 4.85938 8.41405C5.08854 7.9453 5.41146 7.57943 5.82813 7.31641C6.24479 7.05339 6.73568 6.92188 7.30078 6.92188C7.75651 6.92188 8.16277 7.00651 8.51954 7.17578C8.87631 7.34245 9.16406 7.57682 9.38281 7.87891C9.60417 8.18099 9.73568 8.53385 9.77734 8.9375H8.64062C8.57814 8.65625 8.43491 8.41406 8.21095 8.21094C7.98959 8.00781 7.69271 7.90625 7.32031 7.90625C6.99479 7.90625 6.70964 7.99218 6.46484 8.16405C6.22266 8.33332 6.03385 8.57552 5.89844 8.89062C5.76302 9.20312 5.69531 9.57292 5.69531 10C5.69531 10.4375 5.76172 10.8151 5.89453 11.1328C6.02734 11.4505 6.21484 11.6966 6.45703 11.8711C6.70182 12.0456 6.98958 12.1328 7.32031 12.1328C7.54167 12.1328 7.74219 12.0924 7.92188 12.0117C8.10417 11.9284 8.25651 11.8099 8.37891 11.6562C8.50391 11.5026 8.59116 11.3177 8.64062 11.1016H9.77734C9.73568 11.4896 9.60939 11.8359 9.39845 12.1406C9.18751 12.4453 8.90495 12.6849 8.55079 12.8594C8.19922 13.0339 7.78646 13.1211 7.3125 13.1211ZM13.5537 13.1211C12.973 13.1211 12.473 12.9896 12.0537 12.7266C11.637 12.4609 11.3167 12.0951 11.0928 11.6289C10.8688 11.1628 10.7568 10.6289 10.7568 10.0273C10.7568 9.41797 10.8714 8.8802 11.1006 8.41405C11.3298 7.9453 11.6527 7.57943 12.0693 7.31641C12.486 7.05339 12.9769 6.92188 13.542 6.92188C13.9977 6.92188 14.404 7.00651 14.7607 7.17578C15.1175 7.34245 15.4053 7.57682 15.624 7.87891C15.8454 8.18099 15.9769 8.53385 16.0186 8.9375H14.8818C14.8193 8.65625 14.6761 8.41406 14.4521 8.21094C14.2308 8.00781 13.9339 7.90625 13.5615 7.90625C13.236 7.90625 12.9508 7.99218 12.7061 8.16405C12.4639 8.33332 12.2751 8.57552 12.1396 8.89062C12.0042 9.20312 11.9365 9.57292 11.9365 10C11.9365 10.4375 12.0029 10.8151 12.1357 11.1328C12.2686 11.4505 12.4561 11.6966 12.6982 11.8711C12.943 12.0456 13.2308 12.1328 13.5615 12.1328C13.7829 12.1328 13.9834 12.0924 14.1631 12.0117C14.3454 11.9284 14.4977 11.8099 14.6201 11.6562C14.7451 11.5026 14.8324 11.3177 14.8818 11.1016H16.0186C15.9769 11.4896 15.8506 11.8359 15.6396 12.1406C15.4287 12.4453 15.1462 12.6849 14.792 12.8594C14.4404 13.0339 14.0277 13.1211 13.5537 13.1211Z" fill="white"/>
<path d="M15 1H5C2.79086 1 1 2.79086 1 5V15C1 17.2091 2.79086 19 5 19H15C17.2091 19 19 17.2091 19 15V5C19 2.79086 17.2091 1 15 1Z" stroke="white" stroke-width="2"/>
</g>
<defs>
<clipPath id="clip0_1129_11641">
<rect width="20" height="20" fill="white"/>
</clipPath>
</defs>
</svg>
