<svg width="20" height="20" viewBox="0 0 20 20" fill="none" xmlns="http://www.w3.org/2000/svg">
<g clip-path="url(#clip0_1129_11695)">
<path fill-rule="evenodd" clip-rule="evenodd" d="M19.9856 0.718765C19.9849 0.525015 19.8974 0.349997 19.7643 0.231247C19.6437 0.099997 19.4737 0.0062561 19.2806 0.0062561L13.7993 0C13.4368 0 13.1431 0.293787 13.1431 0.662537C13.1437 1.02504 13.5674 1.43748 13.7487 1.61873L15.135 3.01247L11.25 6.875L13.125 8.75L16.9837 4.87503L18.37 6.26877C18.6693 6.57502 18.9737 6.89377 19.3362 6.89377C19.6999 6.89377 19.9931 6.59998 19.9925 6.23123L19.9856 0.718765ZM6.87495 11.25L2.9662 15.2375L1.60308 13.875C1.3087 13.5812 1.00871 13.2625 0.652456 13.2625C0.29558 13.2625 0.0068223 13.55 0.0074473 13.9062L0.0143328 19.3C0.0143328 19.4875 0.100578 19.6563 0.231828 19.775C0.350578 19.9063 0.517444 19.9937 0.707444 19.9937L6.09746 20C6.45371 20 6.74245 19.7125 6.74245 19.3562C6.74182 19 6.32557 18.5937 6.14682 18.4187L4.7837 17.0563L8.74995 13.125L6.87495 11.25Z" fill="white"/>
</g>
<defs>
<clipPath id="clip0_1129_11695">
<rect width="20" height="20" fill="white"/>
</clipPath>
</defs>
</svg>
