<svg width="20" height="20" viewBox="0 0 20 20" fill="none" xmlns="http://www.w3.org/2000/svg">
<g clip-path="url(#clip0_1129_11647)">
<path d="M15 1H5C2.79086 1 1 2.79086 1 5V15C1 17.2091 2.79086 19 5 19H15C17.2091 19 19 17.2091 19 15V5C19 2.79086 17.2091 1 15 1Z" stroke="white" stroke-width="2"/>
<path d="M9.66406 14V8H11.3281V14H9.66406ZM10.5 7.22656C10.2526 7.22656 10.0404 7.14453 9.86328 6.98047C9.6888 6.8138 9.60156 6.61458 9.60156 6.38281C9.60156 6.15365 9.6888 5.95703 9.86328 5.79297C10.0404 5.6263 10.2526 5.54297 10.5 5.54297C10.7474 5.54297 10.9583 5.6263 11.1328 5.79297C11.3099 5.95703 11.3984 6.15365 11.3984 6.38281C11.3984 6.61458 11.3099 6.8138 11.1328 6.98047C10.9583 7.14453 10.7474 7.22656 10.5 7.22656Z" fill="white"/>
</g>
<defs>
<clipPath id="clip0_1129_11647">
<rect width="20" height="20" fill="white"/>
</clipPath>
</defs>
</svg>
