<svg width="20" height="20" viewBox="0 0 20 20" fill="none" xmlns="http://www.w3.org/2000/svg">
<path d="M14.6583 1.03906C12.6737 1.03906 10.9202 2.1258 10 3.7633C9.07979 2.1258 7.32631 1.03906 5.3417 1.03906C2.39627 1.03906 0 3.43533 0 6.38076C0 8.73911 1.63729 11.5638 4.86639 14.7765C7.21432 17.1126 9.52464 18.7696 9.62183 18.839C9.73494 18.9197 9.86749 18.9601 10 18.9601C10.1325 18.9601 10.2651 18.9198 10.3781 18.839C10.4754 18.7696 12.7857 17.1126 15.1336 14.7765C18.3627 11.5638 20 8.73911 20 6.38076C20 3.43533 17.6037 1.03906 14.6583 1.03906ZM14.2277 13.8417C12.499 15.5634 10.7493 16.9344 10 17.4996C9.25073 16.9343 7.50099 15.5634 5.77228 13.8417C2.84755 10.929 1.30164 8.34901 1.30164 6.38076C1.30164 4.15305 3.11399 2.3407 5.3417 2.3407C7.39304 2.3407 9.11775 3.87528 9.35352 5.91026C9.39153 6.23849 9.66956 6.48615 10 6.48615C10.3304 6.48615 10.6084 6.23849 10.6465 5.91026C10.8823 3.87528 12.607 2.3407 14.6583 2.3407C16.886 2.3407 18.6984 4.15305 18.6984 6.38076C18.6984 8.34901 17.1525 10.929 14.2277 13.8417Z" fill="white"/>
</svg>
