<svg width="20" height="20" viewBox="0 0 20 20" fill="none" xmlns="http://www.w3.org/2000/svg">
<path d="M10 0C4.486 0 0 4.486 0 10C0 15.514 4.486 20 10 20C15.514 20 20 15.514 20 10C20 4.486 15.514 0 10 0ZM5.15152 11.5152C4.31606 11.5152 3.63636 10.8355 3.63636 10C3.63636 9.16455 4.31606 8.48485 5.15152 8.48485C5.98697 8.48485 6.66667 9.16455 6.66667 10C6.66667 10.8355 5.98697 11.5152 5.15152 11.5152ZM10 11.5152C9.16455 11.5152 8.48485 10.8355 8.48485 10C8.48485 9.16455 9.16455 8.48485 10 8.48485C10.8355 8.48485 11.5152 9.16455 11.5152 10C11.5152 10.8355 10.8355 11.5152 10 11.5152ZM14.8485 11.5152C14.013 11.5152 13.3333 10.8355 13.3333 10C13.3333 9.16455 14.013 8.48485 14.8485 8.48485C15.6839 8.48485 16.3636 9.16455 16.3636 10C16.3636 10.8355 15.6839 11.5152 14.8485 11.5152Z" fill="white"/>
</svg>
