<svg width="25" height="25" viewBox="0 0 25 25" fill="none" xmlns="http://www.w3.org/2000/svg">
<path d="M4.69211 0.373461C4.20311 -0.119279 3.41151 -0.119279 2.92375 0.373461C2.43476 0.866201 2.43476 1.66404 2.92375 2.15678L13.1698 12.5017L2.92375 22.8467C2.43476 23.3394 2.43476 24.1372 2.92375 24.63C3.41275 25.1227 4.20436 25.1227 4.69211 24.63L15.8212 13.3934C16.0901 13.1245 16.1976 12.7781 16.17 12.4092C16.1487 12.1228 16.0263 11.8152 15.8212 11.6089L4.69211 0.373461Z" fill="white"/>
<path d="M21.1925 0C20.5021 0 19.9419 0.56031 19.9419 1.25056V23.7225C19.9419 24.4129 20.5022 24.9731 21.1925 24.9731C21.8828 24.9731 22.443 24.4128 22.443 23.7225V1.25056C22.443 0.56031 21.8828 0 21.1925 0Z" fill="white"/>
<path d="M3.19246 0C2.5021 0 1.94189 0.56031 1.94189 1.25056V23.7225C1.94189 24.4129 2.5022 24.9731 3.19246 24.9731C3.88281 24.9731 4.44302 24.4128 4.44302 23.7225V1.25056C4.44302 0.56031 3.88281 0 3.19246 0Z" fill="white"/>
</svg>
