<svg width="12" height="12" viewBox="0 0 12 12" fill="none" xmlns="http://www.w3.org/2000/svg">
<g clip-path="url(#clip0_1517_5033)">
<path d="M10.9072 4.90472H7.09191V1.09264C7.09191 0.48923 6.60506 0 6.00165 0C5.39824 0 4.91165 0.48923 4.91165 1.0929V4.90736H1.09455C0.491142 4.90736 0.000590616 5.39659 0.000854921 6.00026C0.000590616 6.30184 0.122435 6.5783 0.319872 6.77574C0.517572 6.9737 0.790336 7.09872 1.09164 7.09872H4.91165V10.9079C4.91165 11.2097 5.03138 11.483 5.22908 11.6802C5.42678 11.8779 5.69875 12.0003 6.00059 12.0003C6.60374 12.0003 7.09191 11.511 7.09191 10.9079V7.09845H10.9072C11.5106 7.09845 11.9998 6.605 11.9995 6.00159C11.9993 5.39844 11.51 4.90472 10.9072 4.90472Z" fill="white"/>
</g>
<defs>
<clipPath id="clip0_1517_5033">
<rect width="12" height="12" fill="white"/>
</clipPath>
</defs>
</svg>
