<svg width="22" height="25" viewBox="0 0 22 25" fill="none" xmlns="http://www.w3.org/2000/svg">
<path d="M18.308 0.373461C18.7969 -0.119279 19.5886 -0.119279 20.0763 0.373461C20.5653 0.866201 20.5653 1.66404 20.0763 2.15678L9.83023 12.5017L20.0763 22.8467C20.5653 23.3394 20.5653 24.1372 20.0763 24.63C19.5873 25.1227 18.7957 25.1227 18.308 24.63L7.17889 13.3934C6.90996 13.1245 6.80248 12.7781 6.83002 12.4092C6.85133 12.1228 6.97379 11.8152 7.17889 11.6089L18.308 0.373461Z" fill="white"/>
<path d="M1.80761 0C2.49796 0 3.05817 0.56031 3.05817 1.25056V23.7225C3.05817 24.4129 2.49786 24.9731 1.80761 24.9731C1.11725 24.9731 0.557044 24.4128 0.557044 23.7225V1.25056C0.557044 0.56031 1.11725 0 1.80761 0Z" fill="white"/>
<path d="M19.8076 0C20.498 0 21.0582 0.56031 21.0582 1.25056V23.7225C21.0582 24.4129 20.4979 24.9731 19.8076 24.9731C19.1172 24.9731 18.557 24.4128 18.557 23.7225V1.25056C18.557 0.56031 19.1172 0 19.8076 0Z" fill="white"/>
</svg>
