<svg width="20" height="20" viewBox="0 0 20 20" fill="none" xmlns="http://www.w3.org/2000/svg">
<path d="M12.4998 1.875H7.49984C6.45043 1.87632 5.44438 2.29379 4.70233 3.03583C3.96029 3.77788 3.54283 4.78392 3.5415 5.83333V16.6667C3.54166 16.9331 3.61476 17.1944 3.75285 17.4222C3.89095 17.65 4.08878 17.8357 4.32489 17.959C4.561 18.0824 4.82639 18.1388 5.09227 18.1221C5.35815 18.1054 5.61438 18.0162 5.83317 17.8642L9.88234 15.0583C9.9173 15.0344 9.9587 15.0215 10.0011 15.0215C10.0435 15.0215 10.0849 15.0344 10.1198 15.0583L14.1665 17.8642C14.3852 18.0165 14.6415 18.1059 14.9075 18.1228C15.1735 18.1397 15.439 18.0833 15.6752 17.9599C15.9115 17.8365 16.1093 17.6506 16.2474 17.4227C16.3854 17.1947 16.4583 16.9332 16.4582 16.6667V5.83333C16.4568 4.78392 16.0394 3.77788 15.2973 3.03583C14.5553 2.29379 13.5492 1.87632 12.4998 1.875ZM15.2082 16.6667C15.2083 16.7048 15.198 16.7423 15.1783 16.7749C15.1586 16.8076 15.1303 16.8343 15.0966 16.852C15.0628 16.8697 15.0248 16.8778 14.9867 16.8754C14.9486 16.873 14.912 16.8602 14.8807 16.8383L10.8332 14.0308C10.5888 13.8626 10.2991 13.7725 10.0023 13.7725C9.70562 13.7725 9.41589 13.8626 9.1715 14.0308L5.11817 16.8333C5.08724 16.8547 5.0511 16.8673 5.01359 16.8698C4.97608 16.8723 4.93859 16.8646 4.9051 16.8475C4.87161 16.8304 4.84337 16.8046 4.82337 16.7727C4.80338 16.7409 4.79236 16.7043 4.7915 16.6667V5.83333C4.79239 5.11531 5.07801 4.42695 5.58573 3.91923C6.09345 3.41151 6.78181 3.12588 7.49984 3.125H12.4998C13.2179 3.12588 13.9062 3.41151 14.4139 3.91923C14.9217 4.42695 15.2073 5.11531 15.2082 5.83333V16.6667Z" fill="white"/>
</svg>
