<svg width="40" height="40" viewBox="0 0 40 40" fill="none" xmlns="http://www.w3.org/2000/svg">
<g clip-path="url(#clip0_1129_11677)">
<path d="M7.49999 22.5C7.49999 24.9723 8.23311 27.389 9.60662 29.4446C10.9801 31.5002 12.9324 33.1024 15.2164 34.0485C17.5005 34.9946 20.0139 35.2421 22.4386 34.7598C24.8634 34.2775 27.0907 33.087 28.8388 31.3388C30.587 29.5907 31.7775 27.3634 32.2598 24.9386C32.7421 22.5139 32.4946 20.0005 31.5485 17.7165C30.6024 15.4324 29.0002 13.4801 26.9446 12.1066C24.889 10.7331 22.4723 10 20 10H15V16.25L7.49999 8.75L15 1.25V7.5H20C22.9667 7.5 25.8668 8.37973 28.3335 10.028C30.8003 11.6762 32.7229 14.0189 33.8582 16.7597C34.9935 19.5006 35.2906 22.5166 34.7118 25.4264C34.133 28.3361 32.7044 31.0088 30.6066 33.1066C28.5088 35.2044 25.8361 36.633 22.9263 37.2118C20.0166 37.7906 17.0006 37.4935 14.2597 36.3582C11.5189 35.2229 9.17617 33.3003 7.52795 30.8336C5.87973 28.3668 4.99999 25.4667 4.99999 22.5H7.49999Z" fill="white"/>
<path d="M16.132 27.739C15.524 27.739 14.948 27.643 14.404 27.451C13.868 27.251 13.436 26.987 13.108 26.659L13.528 25.975C13.8 26.255 14.164 26.487 14.62 26.671C15.084 26.855 15.588 26.947 16.132 26.947C16.828 26.947 17.36 26.795 17.728 26.491C18.104 26.187 18.292 25.779 18.292 25.267C18.292 24.755 18.108 24.347 17.74 24.043C17.38 23.739 16.808 23.587 16.024 23.587H15.424V22.951L18.016 19.699L18.136 20.035H13.456V19.267H18.856V19.879L16.264 23.131L15.844 22.855H16.168C17.176 22.855 17.928 23.079 18.424 23.527C18.928 23.975 19.18 24.551 19.18 25.255C19.18 25.727 19.068 26.151 18.844 26.527C18.62 26.903 18.28 27.199 17.824 27.415C17.376 27.631 16.812 27.739 16.132 27.739ZM23.7454 27.739C23.0974 27.739 22.5214 27.571 22.0174 27.235C21.5134 26.891 21.1174 26.403 20.8294 25.771C20.5414 25.131 20.3974 24.363 20.3974 23.467C20.3974 22.571 20.5414 21.807 20.8294 21.175C21.1174 20.535 21.5134 20.047 22.0174 19.711C22.5214 19.367 23.0974 19.195 23.7454 19.195C24.3934 19.195 24.9694 19.367 25.4734 19.711C25.9774 20.047 26.3734 20.535 26.6614 21.175C26.9574 21.807 27.1054 22.571 27.1054 23.467C27.1054 24.363 26.9574 25.131 26.6614 25.771C26.3734 26.403 25.9774 26.891 25.4734 27.235C24.9694 27.571 24.3934 27.739 23.7454 27.739ZM23.7454 26.947C24.2414 26.947 24.6734 26.815 25.0414 26.551C25.4094 26.279 25.6974 25.887 25.9054 25.375C26.1134 24.855 26.2174 24.219 26.2174 23.467C26.2174 22.715 26.1134 22.083 25.9054 21.571C25.6974 21.051 25.4094 20.659 25.0414 20.395C24.6734 20.123 24.2414 19.987 23.7454 19.987C23.2654 19.987 22.8374 20.123 22.4614 20.395C22.0854 20.659 21.7934 21.051 21.5854 21.571C21.3774 22.083 21.2734 22.715 21.2734 23.467C21.2734 24.219 21.3774 24.855 21.5854 25.375C21.7934 25.887 22.0854 26.279 22.4614 26.551C22.8374 26.815 23.2654 26.947 23.7454 26.947Z" fill="white"/>
</g>
<defs>
<clipPath id="clip0_1129_11677">
<rect width="40" height="40" fill="white" transform="matrix(-1 0 0 1 40 0)"/>
</clipPath>
</defs>
</svg>
