<svg width="40" height="40" viewBox="0 0 40 40" fill="none" xmlns="http://www.w3.org/2000/svg">
<g clip-path="url(#clip0_1129_11673)">
<path d="M32.5 22.5C32.5 24.9723 31.7669 27.389 30.3934 29.4446C29.0199 31.5002 27.0676 33.1024 24.7836 34.0485C22.4995 34.9946 19.9861 35.2421 17.5614 34.7598C15.1366 34.2775 12.9093 33.087 11.1612 31.3388C9.41302 29.5907 8.22251 27.3634 7.74019 24.9386C7.25788 22.5139 7.50542 20.0005 8.45151 17.7165C9.39761 15.4324 10.9998 13.4801 13.0554 12.1066C15.111 10.7331 17.5277 10 20 10H25V16.25L32.5 8.75L25 1.25V7.5H20C17.0333 7.5 14.1332 8.37973 11.6665 10.028C9.19972 11.6762 7.27713 14.0189 6.14181 16.7597C5.0065 19.5006 4.70945 22.5166 5.28823 25.4264C5.86701 28.3361 7.29562 31.0088 9.3934 33.1066C11.4912 35.2044 14.1639 36.633 17.0737 37.2118C19.9834 37.7906 22.9994 37.4935 25.7403 36.3582C28.4811 35.2229 30.8238 33.3003 32.472 30.8336C34.1203 28.3668 35 25.4667 35 22.5H32.5Z" fill="white"/>
<path d="M16.132 27.072C15.524 27.072 14.948 26.976 14.404 26.784C13.868 26.584 13.436 26.32 13.108 25.992L13.528 25.308C13.8 25.588 14.164 25.82 14.62 26.004C15.084 26.188 15.588 26.28 16.132 26.28C16.828 26.28 17.36 26.128 17.728 25.824C18.104 25.52 18.292 25.112 18.292 24.6C18.292 24.088 18.108 23.68 17.74 23.376C17.38 23.072 16.808 22.92 16.024 22.92H15.424V22.284L18.016 19.032L18.136 19.368H13.456V18.6H18.856V19.212L16.264 22.464L15.844 22.188H16.168C17.176 22.188 17.928 22.412 18.424 22.86C18.928 23.308 19.18 23.884 19.18 24.588C19.18 25.06 19.068 25.484 18.844 25.86C18.62 26.236 18.28 26.532 17.824 26.748C17.376 26.964 16.812 27.072 16.132 27.072ZM23.7454 27.072C23.0974 27.072 22.5214 26.904 22.0174 26.568C21.5134 26.224 21.1174 25.736 20.8294 25.104C20.5414 24.464 20.3974 23.696 20.3974 22.8C20.3974 21.904 20.5414 21.14 20.8294 20.508C21.1174 19.868 21.5134 19.38 22.0174 19.044C22.5214 18.7 23.0974 18.528 23.7454 18.528C24.3934 18.528 24.9694 18.7 25.4734 19.044C25.9774 19.38 26.3734 19.868 26.6614 20.508C26.9574 21.14 27.1054 21.904 27.1054 22.8C27.1054 23.696 26.9574 24.464 26.6614 25.104C26.3734 25.736 25.9774 26.224 25.4734 26.568C24.9694 26.904 24.3934 27.072 23.7454 27.072ZM23.7454 26.28C24.2414 26.28 24.6734 26.148 25.0414 25.884C25.4094 25.612 25.6974 25.22 25.9054 24.708C26.1134 24.188 26.2174 23.552 26.2174 22.8C26.2174 22.048 26.1134 21.416 25.9054 20.904C25.6974 20.384 25.4094 19.992 25.0414 19.728C24.6734 19.456 24.2414 19.32 23.7454 19.32C23.2654 19.32 22.8374 19.456 22.4614 19.728C22.0854 19.992 21.7934 20.384 21.5854 20.904C21.3774 21.416 21.2734 22.048 21.2734 22.8C21.2734 23.552 21.3774 24.188 21.5854 24.708C21.7934 25.22 22.0854 25.612 22.4614 25.884C22.8374 26.148 23.2654 26.28 23.7454 26.28Z" fill="white"/>
</g>
<defs>
<clipPath id="clip0_1129_11673">
<rect width="40" height="40" fill="white"/>
</clipPath>
</defs>
</svg>
