<svg width="20" height="20" viewBox="0 0 20 20" fill="none" xmlns="http://www.w3.org/2000/svg">
<path d="M9.51571 2.60786C10.0672 2.2139 10.8334 2.60816 10.8334 3.28597V16.714C10.8334 17.3918 10.0672 17.7861 9.51571 17.3921L5.00004 14.1666H2.50004C1.57957 14.1666 0.833374 13.4205 0.833374 12.5V7.49998C0.833374 6.5795 1.57957 5.83331 2.50004 5.83331H5.00004L9.51571 2.60786Z" fill="white"/>
<path d="M13.3281 14.0882C14.3622 13.0357 15 11.5925 15 10.0004C15 8.40166 14.3568 6.95311 13.3151 5.89941" stroke="white" stroke-width="2" stroke-linecap="round" stroke-linejoin="round"/>
<path d="M15.6486 3.51855C17.3074 5.1774 18.3334 7.46906 18.3334 10.0004C18.3334 12.5316 17.3074 14.8233 15.6486 16.4822" stroke="white" stroke-width="2" stroke-linecap="round" stroke-linejoin="round"/>
</svg>
